<svg width="800" height="800" viewBox="0 0 800 800" fill="none" xmlns="http://www.w3.org/2000/svg">
<g clip-path="url(#clip0_1_7)">
<path d="M601.303 188.017C548.192 111.513 442.457 89.0975 366.444 137.339L232.448 223.102C195.904 246.004 170.567 283.525 163.258 325.919C156.924 361.492 162.283 398.038 179.337 429.712C167.643 447.254 159.847 466.746 156.436 487.212C148.64 530.58 158.873 575.411 184.21 610.983C237.808 687.487 343.056 709.902 419.068 661.661L553.064 576.386C589.609 553.483 614.946 515.962 622.255 473.568C628.589 437.996 623.229 401.449 606.175 369.775C617.869 352.233 625.666 332.741 629.076 312.275C637.36 268.419 627.127 223.589 601.303 188.017Z" fill="#FD5200"/>
<path d="M353.289 618.292C309.923 629.5 264.608 612.445 239.27 575.898C223.678 554.458 217.831 527.657 222.216 501.343C223.191 496.958 224.165 493.059 225.14 488.674L227.576 480.877L234.398 485.75C250.477 497.445 268.018 506.216 287.021 512.064L291.894 513.525L291.407 518.398C290.92 525.22 292.869 532.53 296.767 538.377C304.563 549.585 318.206 554.945 331.362 551.534C334.285 550.559 337.209 549.585 339.645 548.123L473.154 462.847C479.976 458.462 484.361 452.127 485.823 444.33C487.284 436.534 485.335 428.25 480.95 421.915C473.154 410.708 459.511 405.835 446.355 409.246C443.431 410.22 440.508 411.195 438.071 412.657L386.909 445.305C378.626 450.665 369.368 454.564 359.623 457C316.257 468.208 270.942 451.152 245.605 414.606C230.5 393.165 224.165 366.364 229.038 340.051C233.423 314.712 249.015 291.809 270.942 278.165L404.938 192.89C413.221 187.53 422.479 183.631 432.224 180.708C475.59 169.5 520.905 186.555 546.243 223.102C561.835 244.542 567.682 271.343 563.297 297.657C562.322 302.042 561.348 305.941 559.886 310.326L557.45 318.123L550.628 313.25C534.548 301.555 517.007 292.784 498.004 286.936L493.132 285.475L493.619 280.602C494.106 273.78 492.157 266.47 488.259 260.623C480.463 249.415 466.82 244.542 453.664 247.953C450.74 248.928 447.817 249.903 445.38 251.364L311.872 336.64C305.05 341.025 300.665 347.36 299.203 355.157C297.741 362.953 299.69 371.237 304.075 377.572C311.872 388.78 325.515 393.653 338.671 390.242C341.594 389.267 344.518 388.292 346.954 386.83L398.116 354.182C406.4 348.822 415.658 344.924 425.403 342C468.769 330.792 514.084 347.847 539.421 384.394C555.013 405.835 560.86 432.636 556.475 458.949C552.09 484.288 536.497 507.191 514.571 520.835L380.575 606.11C372.292 611.47 363.034 615.369 353.289 618.292Z" fill="#CFD8D7"/>
<path d="M400 0.000315254C179.067 0.000315254 0 179.1 0 400C0 620.934 179.067 800 400 800C620.9 800 800 620.934 800 400C800.016 362.299 794.708 324.784 784.233 288.567C782.27 283.798 778.54 279.972 773.823 277.887C769.105 275.803 763.765 275.621 758.917 277.381C754.068 279.14 750.088 282.704 747.805 287.329C745.522 291.954 745.115 297.282 746.667 302.2H746.6C755.433 333.634 760 366.467 760 400C760.13 447.296 750.879 494.148 732.781 537.844C714.683 581.54 688.099 621.213 654.567 654.567C621.214 688.101 581.541 714.686 537.845 732.784C494.148 750.882 447.296 760.132 400 760C352.704 760.13 305.853 750.879 262.156 732.781C218.46 714.684 178.787 688.099 145.433 654.567C111.898 621.215 85.3117 581.543 67.2139 537.846C49.1161 494.149 39.8663 447.296 40 400C39.87 352.705 49.1215 305.853 67.2191 262.157C85.3167 218.46 111.901 178.787 145.433 145.434C178.785 111.898 218.457 85.312 262.154 67.2142C305.851 49.1164 352.704 39.8666 400 40.0003C485.867 40.0003 567.1 69.867 631.933 124.667C627.836 135.067 627.428 146.558 630.777 157.223C634.127 167.888 641.032 177.082 650.34 183.271C659.649 189.461 670.798 192.272 681.928 191.236C693.058 190.2 703.497 185.379 711.503 177.578C719.509 169.776 724.598 159.465 725.921 148.366C727.245 137.266 724.723 126.048 718.776 116.582C712.829 107.117 703.816 99.977 693.242 96.3528C682.667 92.7286 671.169 92.8395 660.667 96.667C588.203 34.1926 495.677 -0.119984 400 0.000315254Z" fill="#FD5200"/>
</g>
<defs>
<clipPath id="clip0_1_7">
<rect width="800" height="800" fill="white"/>
</clipPath>
</defs>
</svg>


